<?xml version="1.0" encoding="UTF-8"?>
<svg xmlns="http://www.w3.org/2000/svg" xmlns:xlink="http://www.w3.org/1999/xlink" width="25px" height="25px" viewBox="0 0 32 32" version="1.1" >
<g id="surface1">
<path style=" stroke:none;fill:#000000;fill-opacity:1;" d="M 32 16 C 32 24.835938 24.835938 32 16 32 C 7.164062 32 0 24.835938 0 16 C 0 7.164062 7.164062 0 16 0 C 24.835938 0 32 7.164062 32 16 Z M 32 16 "/>
<path style=" stroke:none;fill:#FFFFFF;fill-opacity:1;" d="M 25.019531 22.257812 L 7.003906 22.257812 L 7.003906 9.410156 L 25.019531 9.410156 Z M 8.003906 21.257812 L 24.019531 21.257812 L 24.019531 10.410156 L 8.003906 10.410156 Z M 8.003906 21.257812 "/>
<path style=" stroke:none;fill:#FFFFFF;fill-opacity:1;" d="M 16.011719 17.492188 L 7.238281 12.046875 L 7.765625 11.195312 L 16.011719 16.316406 L 24.253906 11.15625 L 24.78125 12.007812 Z M 16.011719 17.492188 "/>
<path style=" stroke:none;fill:#FFFFFF;fill-opacity:1;" d="M 24.949219 21.441406 L 24.164062 22.0625 L 18.867188 15.316406 L 19.652344 14.699219 Z M 24.949219 21.441406 "/>
<path style=" stroke:none;fill:#FFFFFF;fill-opacity:1;" d="M 13.171875 15.3125 L 7.878906 22.0625 L 7.09375 21.445312 L 12.382812 14.695312 Z M 13.171875 15.3125 "/>
</g>
</svg>
